<?xml version="1.0" encoding="UTF-8" standalone="no"?>
<!DOCTYPE svg PUBLIC "-//W3C//DTD SVG 1.1//EN" "http://www.w3.org/Graphics/SVG/1.1/DTD/svg11.dtd">
<svg width="100%" height="100%" viewBox="0 0 1221 819" version="1.1" xmlns="http://www.w3.org/2000/svg" xmlns:xlink="http://www.w3.org/1999/xlink" xml:space="preserve" xmlns:serif="http://www.serif.com/" style="fill-rule:evenodd;clip-rule:evenodd;">
    <g transform="matrix(1,0,0,1,-449.055,-2837.68)">
        <g transform="matrix(0.576862,0,0,0.576862,-21.2853,1680.73)">
            <g transform="matrix(5.1873,0,0,5.1873,-1150.46,1575.54)">
                <path d="M742.842,345.647L731.873,345.363C729.605,346.213 720.789,351.372 726.317,352.279C729.322,352.761 739.129,352.364 742.644,352.223L742.842,345.647Z" style="fill:rgb(36,40,44);"/>
            </g>
            <g transform="matrix(5.1873,0,0,5.1873,-1150.46,1575.54)">
                <path d="M780.202,339.552L771.868,347.007C770.678,348.991 767.843,358.487 772.435,355.482C774.986,353.838 781.988,346.922 784.454,344.484L780.202,339.552Z" style="fill:rgb(36,40,44);"/>
            </g>
            <g transform="matrix(5.1873,0,0,5.1873,-1150.46,1575.54)">
                <path d="M728.896,204.4L740.093,203.862L751.63,203.408" style="fill:none;stroke:rgb(51,44,43);stroke-width:0.57px;"/>
            </g>
            <g transform="matrix(5.1873,0,0,5.1873,-1150.46,1575.54)">
                <path d="M684.139,172.341L685.698,183.51C691.253,182.829 692.926,178.124 691.253,172.71C688.731,170.697 689.779,170.952 686.916,169.762L683.657,169.28L684.139,172.341Z" style="fill:rgb(231,167,77);"/>
            </g>
            <g transform="matrix(5.1873,0,0,5.1873,-1150.46,1575.54)">
                <path d="M681.956,182.829L680.085,170.187C672.8,174.382 677.307,183.425 681.956,182.829Z" style="fill:rgb(231,167,77);"/>
            </g>
            <g transform="matrix(5.1873,0,0,5.1873,-1150.46,1575.54)">
                <path d="M733.148,345.363L746.102,345.647C744.316,310.385 739.639,318.321 750.127,294.596C751.233,292.102 755.74,282.663 756.023,281.16C759.113,305.679 747.434,294.313 766.086,331.162C768.353,335.641 771.556,341.225 773.03,345.647L786.296,345.732C783.207,334.138 776.772,320.674 774.278,309.421C772.86,302.986 777.084,274.584 777.367,265.315L733.205,265.315C730.597,277.645 726.94,293.406 725.381,305.594C724.588,311.745 731.561,337.483 733.148,345.363Z" style="fill:rgb(49,77,101);stroke:rgb(49,77,101);stroke-width:0.22px;"/>
            </g>
            <g transform="matrix(5.1873,0,0,5.1873,-1150.46,1575.54)">
                <path d="M750.581,198.703C751.063,199.27 751.63,199.723 752.168,199.978C753.359,200.517 754.549,200.148 755.371,199.78C756.222,199.383 756.76,198.986 757.667,198.674C758.574,198.363 759.85,198.136 760.558,197.427C761.295,196.719 761.437,195.5 761.352,194.706C761.239,193.884 760.927,193.487 760.615,193.175C760.332,192.864 760.077,192.637 760.587,191.957C761.097,191.305 762.344,190.171 762.769,189.235C763.223,188.3 762.883,187.535 762.316,186.939C761.749,186.344 760.984,185.919 760.87,185.04C760.757,184.162 761.324,182.858 761.239,181.894C761.154,180.93 760.388,180.335 759.793,179.966C759.169,179.598 758.688,179.484 758.262,178.464C757.866,177.444 757.497,175.573 756.278,174.127C755.088,172.653 753.018,171.661 751.289,171.236C749.56,170.811 748.171,170.952 746.981,171.151C745.819,171.321 744.855,171.548 744.288,171.888C743.749,172.2 743.608,172.625 743.268,172.511C742.927,172.426 742.417,171.803 741.907,171.434C741.425,171.094 740.943,171.009 739.923,171.236C738.902,171.463 737.343,172.001 736.011,173.135C734.707,174.269 733.658,175.998 733.12,177.529C732.581,179.059 732.581,180.392 732.695,181.525C732.78,182.631 733.006,183.566 732.354,184.303C731.731,185.069 730.257,185.635 729.208,186.571C728.159,187.506 727.564,188.81 727.734,189.859C727.876,190.936 728.811,191.758 729.52,192.977C730.2,194.224 730.625,195.84 731.986,196.945C733.347,198.051 735.586,198.618 737.854,198.76C740.093,198.93 742.332,198.703 744.515,198.646C746.584,198.561 748.597,198.646 750.581,198.703Z" style="fill:rgb(49,77,101);stroke:rgb(49,77,101);stroke-width:0.57px;"/>
            </g>
            <g transform="matrix(5.1873,0,0,5.1873,-1150.46,1575.54)">
                <path d="M734.225,204.4L735.728,201.169C736.691,199.695 737.655,198.193 737.967,197.229C738.279,196.237 737.939,195.755 737.57,195.5C737.202,195.245 736.805,195.245 736.238,195.16C735.671,195.075 734.906,194.876 734.339,194.451C733.8,194.054 733.46,193.402 733.488,192.694C733.517,191.957 733.914,191.135 734.282,190.256C734.679,189.377 735.047,188.442 735.331,187.563C735.614,186.713 735.813,185.891 735.756,185.21C735.671,184.53 735.359,183.963 735.161,183.566C734.934,183.141 734.849,182.858 735.331,182.631C735.813,182.432 736.89,182.262 737.91,181.922C738.931,181.554 739.923,180.987 740.887,180.42L745.79,186.004C745.932,186.174 746.074,186.344 746.216,186.514C747.633,188.13 748.511,189.122 749.56,189.774C750.609,190.426 751.8,190.738 752.253,191.73C752.735,192.75 752.48,194.479 752.083,195.443C751.856,195.953 751.601,196.265 751.374,196.52C751.204,196.747 751.034,196.974 750.978,197.314C750.864,197.909 751.063,198.873 751.63,199.44L750.609,204.882C746.782,205.988 740.575,205.648 735.558,205.421C734.934,205.052 734.509,204.712 734.225,204.4Z" style="fill:rgb(234,169,77);"/>
            </g>
            <g transform="matrix(5.1873,0,0,5.1873,-1150.46,1575.54)">
                <path d="M744.515,176.395C746.442,178.294 749.844,181.525 752.367,184.048C754.889,186.543 756.505,188.385 758.036,188.754C759.538,189.122 760.927,188.045 762.004,186.174C763.081,184.303 763.875,181.639 763.733,178.918C763.591,176.225 762.514,173.475 760.672,171.689C758.801,169.904 756.165,169.053 753.557,168.94C750.978,168.798 748.426,169.393 746.471,170.215C744.515,171.066 743.154,172.143 742.672,172.993C742.19,173.844 742.587,174.467 744.515,176.395Z" style="fill:rgb(204,82,82);stroke:rgb(204,82,82);stroke-width:0.57px;"/>
            </g>
            <g transform="matrix(5.1873,0,0,5.1873,-1150.46,1575.54)">
                <path d="M743.097,174.864C740.66,172.37 738.222,169.847 736.833,168.033C735.473,166.19 735.189,165.028 735.473,164.235C735.784,163.441 736.663,163.016 737.825,163.356C738.987,163.724 740.433,164.858 741.794,166.304C743.126,167.778 744.373,169.592 745.62,171.406" style="fill:none;stroke:rgb(51,44,43);stroke-width:0.57px;"/>
            </g>
            <g transform="matrix(5.1873,0,0,5.1873,-1150.46,1575.54)">
                <path d="M739.923,171.236C740.943,171.009 741.425,171.094 741.907,171.434C742.332,171.718 742.757,172.2 743.097,172.426C743.551,171.916 744.288,171.349 745.223,170.839C744.118,169.223 742.984,167.636 741.794,166.304C740.433,164.858 738.987,163.724 737.825,163.356C737.712,163.327 737.627,163.327 737.542,163.299C736.521,163.101 735.756,163.498 735.473,164.235C735.189,165.028 735.473,166.19 736.833,168.033C737.06,168.288 737.287,168.6 737.542,168.912C738.137,169.62 738.874,170.442 739.668,171.293C739.753,171.264 739.838,171.236 739.923,171.236Z" style="fill:rgb(204,82,82);stroke:rgb(204,82,82);stroke-width:0.57px;"/>
            </g>
            <g transform="matrix(5.1873,0,0,5.1873,-1150.46,1575.54)">
                <path d="M741.907,171.434C741.425,171.094 740.943,171.009 739.923,171.236C739.838,171.236 739.753,171.264 739.668,171.293C740.716,172.426 741.907,173.645 743.097,174.864C742.417,174.042 742.332,173.56 742.672,172.993C742.757,172.823 742.899,172.625 743.097,172.426C742.757,172.2 742.332,171.718 741.907,171.434Z" style="fill:rgb(204,82,82);stroke:rgb(204,82,82);stroke-width:0.57px;"/>
            </g>
            <g transform="matrix(5.1873,0,0,5.1873,-1150.46,1575.54)">
                <path d="M707.637,230.081C705.766,229.685 703.64,228.721 701.883,227.474C700.097,226.226 698.68,224.667 698.056,223.25C697.433,221.861 697.603,220.557 697.688,219.934C697.773,219.282 697.773,219.282 697.716,218.658C697.631,218.035 697.518,216.787 697.234,215.483C696.922,214.18 696.497,212.819 695.023,212.224C693.549,211.628 691.083,211.77 689.042,212.706C687.03,213.641 685.442,215.37 684.904,216.929C684.394,218.46 684.932,219.849 687.88,223.845C690.828,227.842 696.185,234.447 700.069,238.302C703.952,242.157 706.39,243.234 708.856,243.432C711.35,243.631 713.845,242.922 714.752,242.78C714.95,242.752 715.092,242.752 715.12,242.752C715.035,242.724 714.752,242.61 714.61,242.128C714.327,241.193 714.553,238.982 714.355,236.828C714.185,234.673 713.59,232.576 712.683,231.187C712.456,230.875 712.229,230.563 711.974,230.308C710.613,230.393 709.224,230.45 707.637,230.081Z" style="fill:rgb(234,169,77);"/>
            </g>
            <g transform="matrix(5.1873,0,0,5.1873,-1150.46,1575.54)">
                <path d="M732.581,229.855C733.063,232.009 734.197,236.431 734.48,242.554C734.792,248.705 734.254,256.585 733.545,261.375C732.836,266.165 731.958,267.866 731.674,269.085C731.391,270.276 731.703,270.984 733.942,271.154C736.181,271.353 740.376,271.013 743.92,270.105C747.434,269.198 750.326,267.696 755.314,267.271C760.332,266.874 767.446,267.498 771.67,267.866C775.893,268.206 777.226,268.263 778.246,268.348C779.295,268.433 779.975,268.49 779.04,267.158C778.076,265.797 775.44,262.991 773.626,258.37C771.783,253.75 770.734,247.287 769.629,241.221C768.524,235.127 767.361,229.429 765.689,224.157C764.045,218.885 761.862,214.038 758.546,210.353C755.229,206.64 750.779,204.06 746.924,202.7C743.069,201.339 739.838,201.226 736.068,200.602C732.298,199.978 727.989,198.845 724.815,197.201C721.64,195.528 719.571,193.374 717.955,191.56C716.368,189.746 715.205,188.3 714.327,187.591C713.448,186.883 712.824,186.911 712.626,187.96C712.399,189.009 712.626,191.05 711.804,192.864C710.982,194.678 709.168,196.265 708.006,197.342C706.872,198.419 706.418,199.015 709.565,200.97C712.739,202.926 719.542,206.243 723.539,208.255C727.536,210.268 728.726,210.92 727.252,213.131C725.75,215.37 721.555,219.14 717.813,222.456C714.043,225.773 710.755,228.607 709.423,230.195C708.062,231.782 708.658,232.122 709.309,232.633C709.99,233.143 710.727,233.795 711.435,234.702C712.144,235.637 712.853,236.799 712.966,238.472C713.051,240.144 712.541,242.298 713.136,243.205C713.76,244.084 715.461,243.716 718.21,241.76C720.96,239.804 724.758,236.261 727.309,233.71C729.86,231.159 731.164,229.543 731.731,228.693C732.269,227.842 732.128,227.7 732.581,229.855Z" style="fill:rgb(204,82,82);stroke:rgb(204,82,82);stroke-width:0.57px;"/>
            </g>
            <g transform="matrix(5.1873,0,0,5.1873,-1150.46,1575.54)">
                <path d="M691.849,175.828C694.91,178.606 697.971,181.355 701.486,183.85C705.001,186.316 708.998,188.527 712.966,190.738" style="fill:none;stroke:rgb(51,44,43);stroke-width:0.57px;"/>
            </g>
            <g transform="matrix(5.1873,0,0,5.1873,-1150.46,1575.54)">
                <path d="M687.03,183.254C689.808,185.947 692.727,188.64 696.554,191.22C700.437,193.856 705.313,196.378 708.771,197.427C709.933,196.35 711.605,194.848 712.371,193.147C712.739,192.353 712.881,191.503 712.966,190.738C708.998,188.527 705.001,186.316 701.486,183.85C697.971,181.355 694.91,178.606 691.849,175.828C692.075,179.428 690.516,182.291 687.03,183.254Z" style="fill:rgb(234,169,77);stroke:rgb(234,169,77);stroke-width:0.57px;"/>
            </g>
            <g transform="matrix(5.1873,0,0,5.1873,-1150.46,1575.54)">
                <path d="M695.193,246.465L668.577,91.67" style="fill:none;stroke:rgb(51,44,43);stroke-width:4.25px;"/>
            </g>
            <g transform="matrix(5.1873,0,0,5.1873,-1150.46,1575.54)">
                <path d="M665.005,85.122C672.999,86.001 674.586,88.325 674.87,89.941C675.181,91.585 674.161,92.492 672.007,93.314C669.852,94.164 666.508,94.901 658.486,95.61C650.436,96.318 637.708,96.999 630.906,97.169C624.131,97.311 623.309,96.999 622.714,95.837C622.118,94.646 621.807,92.662 621.807,91.16C621.807,89.657 622.118,88.665 623.252,87.786C624.386,86.908 626.285,86.171 634.449,85.49C642.612,84.838 657.012,84.243 665.005,85.122Z" style="fill:rgb(0,142,141);stroke:rgb(0,142,141);stroke-width:0.57px;"/>
            </g>
        </g>
        <g transform="matrix(0.576862,0,0,0.576862,117.525,1702.56)">
            <g transform="matrix(5.1873,0,0,5.1873,-1150.46,1575.54)">
                <path d="M432.77,177.614C432.004,179.201 433.336,178.549 431.126,179.91L428.971,180.958C417.094,188.555 404.055,195.982 391.328,202.955C393.936,207.008 407.429,216.476 410.773,220.331C413.126,219.338 420.808,212.932 422.282,211.232L426.505,208.595C430.02,210.778 433.45,213.981 436.738,215.852C436.284,216.646 429.85,223.874 428.745,224.951L424.663,230.081C423.926,229.685 424.975,228.664 421.375,232.236C405.529,247.911 397.734,225.745 387.161,221.351L386.311,261.035L341.979,261.035C343.282,245.53 353.997,199.298 367.036,196.067C370.551,197.286 376.504,196.719 380.755,196.52L379.168,192.495C385.432,190.256 413.466,175.318 417.831,171.689L427.214,166.814C425.513,172.228 427.214,176.933 432.77,177.614Z" style="fill:rgb(49,77,101);"/>
            </g>
            <g transform="matrix(5.1873,0,0,5.1873,-1150.46,1575.54)">
                <path d="M386.396,341.111L373.357,341.366C375.171,306.104 379.877,314.041 369.332,290.316C368.227,287.821 363.72,278.382 363.408,276.908C360.318,301.427 372.025,290.032 353.317,326.882C351.049,331.36 347.818,336.944 346.344,341.366L333.021,341.451C336.139,329.858 342.574,316.394 345.097,305.141C346.514,298.706 342.262,270.304 341.979,261.035L386.311,261.035C388.947,273.365 392.632,289.154 394.191,301.314C394.985,307.465 387.955,333.203 386.396,341.111Z" style="fill:rgb(204,82,82);stroke:rgb(204,82,82);stroke-width:0.22px;"/>
            </g>
            <g transform="matrix(5.1873,0,0,5.1873,-1150.46,1575.54)">
                <path d="M436.738,215.852C433.45,213.981 430.02,210.778 426.505,208.595L422.282,211.232C422.452,204.599 424.181,204.599 428.886,201.651L433.251,201.084C436.001,203.437 438.552,203.918 439.686,207.575C440.961,211.6 439.006,214.293 436.738,215.852Z" style="fill:rgb(234,169,77);"/>
            </g>
            <g transform="matrix(5.1873,0,0,5.1873,-1150.46,1575.54)">
                <path d="M373.357,341.366L386.396,341.111C389.089,341.933 399.605,347.092 393.029,347.999C389.429,348.509 377.751,348.084 373.612,347.943L373.357,341.366Z" style="fill:rgb(36,40,44);"/>
            </g>
            <g transform="matrix(5.1873,0,0,5.1873,-1150.46,1575.54)">
                <path d="M434.329,166.446L432.77,177.614C427.214,176.933 425.513,172.228 427.214,166.814C429.708,164.801 428.688,165.057 431.522,163.866L434.782,163.384L434.329,166.446Z" style="fill:rgb(231,167,77);"/>
            </g>
            <g transform="matrix(5.1873,0,0,5.1873,-1150.46,1575.54)">
                <path d="M436.54,176.395L438.382,163.724C445.667,167.919 441.188,176.962 436.54,176.395Z" style="fill:rgb(231,167,77);"/>
            </g>
            <g transform="matrix(5.1873,0,0,5.1873,-1150.46,1575.54)">
                <path d="M374.859,169.507C374.888,170.527 374.945,171.548 374.151,173.135C373.385,174.722 371.77,176.877 370.608,178.407C369.474,179.966 368.737,180.93 367.886,181.554C367.064,182.177 366.072,182.489 365.704,183.453C365.307,184.417 365.505,186.089 365.846,186.996C366.186,187.931 366.639,188.102 366.724,188.782C366.838,189.491 366.611,190.709 365.874,191.163C365.109,191.616 363.861,191.305 362.444,190.426C361.027,189.519 359.439,188.017 358.929,186.231C358.447,184.417 359.014,182.347 358.929,180.193C358.844,178.011 358.107,175.771 357.682,173.929C357.257,172.086 357.172,170.669 358.221,169.649C359.269,168.6 361.424,167.919 363.266,166.927C365.109,165.935 366.611,164.603 367.433,163.044C368.255,161.513 368.425,159.756 368.964,158.792C369.53,157.857 370.438,157.687 371.713,157.857C373.017,158.027 374.689,158.509 375.483,159.671C376.277,160.833 376.192,162.676 375.965,164.943C375.71,167.211 375.341,169.875 374.973,172.568" style="fill:none;stroke:rgb(51,44,43);stroke-width:0.57px;"/>
            </g>
            <g transform="matrix(5.1873,0,0,5.1873,-1150.46,1575.54)">
                <path d="M368.085,181.809C368.85,181.242 369.53,180.392 370.494,179.059L375.171,172.823C375.54,170.13 375.908,167.438 376.135,165.198C376.362,162.931 376.447,161.088 375.653,159.926C374.859,158.764 373.215,158.254 371.912,158.084C370.608,157.942 369.701,158.084 369.162,159.047C368.623,160.011 368.453,161.768 367.631,163.299C366.781,164.858 365.279,166.19 363.465,167.182C361.622,168.175 359.468,168.855 358.419,169.875C357.37,170.924 357.455,172.341 357.88,174.184C358.277,176.026 359.043,178.266 359.128,180.42C359.213,182.603 358.617,184.672 359.128,186.458C359.61,188.272 361.197,189.774 362.614,190.653C364.06,191.56 365.307,191.872 366.044,191.418C366.186,191.333 366.299,191.22 366.412,191.106L365.902,187.988C366.129,188.102 366.356,188.215 366.611,188.3C366.412,188.045 366.214,187.761 366.016,187.251C365.704,186.344 365.505,184.672 365.874,183.708C366.271,182.716 367.234,182.432 368.085,181.809Z" style="fill:rgb(51,44,43);stroke:rgb(51,44,43);stroke-width:0.57px;"/>
            </g>
            <g transform="matrix(5.1873,0,0,5.1873,-1150.46,1575.54)">
                <path d="M366.724,188.782C366.696,188.47 366.554,188.272 366.412,188.045C366.186,187.96 365.931,187.846 365.704,187.733L366.214,190.851C366.696,190.284 366.838,189.377 366.724,188.782Z" style="fill:rgb(51,44,43);stroke:rgb(51,44,43);stroke-width:0.57px;"/>
            </g>
            <g transform="matrix(5.1873,0,0,5.1873,-1150.46,1575.54)">
                <path d="M381.096,196.492L379.848,193.26C378.998,191.786 378.176,190.313 377.921,189.32C377.666,188.328 377.949,187.846 378.261,187.591C378.573,187.365 378.913,187.365 379.395,187.251C379.877,187.166 380.529,186.968 381.01,186.543C381.464,186.146 381.747,185.522 381.719,184.785C381.719,184.048 381.379,183.226 381.067,182.347C380.727,181.469 380.415,180.533 380.16,179.683C379.933,178.804 379.763,177.982 379.82,177.302C379.877,176.622 380.132,176.083 380.302,175.658C380.5,175.233 380.585,174.949 380.16,174.722C379.763,174.524 378.856,174.354 377.977,174.014C377.099,173.645 376.277,173.078 375.455,172.511L371.288,178.096C371.175,178.266 371.033,178.436 370.919,178.606C369.729,180.221 368.964,181.214 368.085,181.866C367.206,182.517 366.186,182.829 365.789,183.85C365.392,184.842 365.619,186.571 365.959,187.535C366.129,188.073 366.356,188.357 366.554,188.612C366.696,188.867 366.838,189.065 366.894,189.405C366.979,190.001 366.838,190.964 366.327,191.56L367.206,196.974C370.438,198.108 375.71,197.767 379.962,197.512C380.5,197.172 380.869,196.804 381.096,196.492Z" style="fill:rgb(234,169,77);"/>
            </g>
            <g transform="matrix(5.1873,0,0,5.1873,-1150.46,1575.54)">
                <path d="M366.753,163.696C365.959,163.044 364.457,163.016 362.387,163.327C360.318,163.639 357.682,164.263 356.265,166.049C354.847,167.834 354.649,170.811 355.188,173.192C355.698,175.601 356.917,177.444 357.994,178.691C359.043,179.938 359.95,180.618 360.432,180.788C360.913,180.987 360.97,180.703 361.367,179.938C361.764,179.173 362.501,177.897 363.635,175.658C364.768,173.419 366.299,170.215 366.979,167.948C367.688,165.68 367.546,164.376 366.753,163.696Z" style="fill:rgb(0,142,141);stroke:rgb(0,142,141);stroke-width:0.57px;"/>
            </g>
            <g transform="matrix(5.1873,0,0,5.1873,-1150.46,1575.54)">
                <path d="M364.627,163.129C365.335,160.521 366.072,157.885 366.838,156.411C367.575,154.937 368.368,154.597 369.162,154.682C369.956,154.767 370.749,155.277 371.118,156.099C371.486,156.921 371.458,158.084 370.778,159.756C370.097,161.428 368.765,163.583 367.433,165.765" style="fill:none;stroke:rgb(51,44,43);stroke-width:0.57px;"/>
            </g>
            <g transform="matrix(5.1873,0,0,5.1873,-1150.46,1575.54)">
                <path d="M366.838,156.411C366.072,157.885 365.335,160.521 364.627,163.129C365.562,163.157 366.271,163.327 366.753,163.696C366.809,163.753 366.866,163.809 366.923,163.866C367.121,163.611 367.291,163.327 367.433,163.044C368.255,161.513 368.425,159.756 368.964,158.792C369.445,157.942 370.239,157.715 371.316,157.8C371.401,157.12 371.316,156.553 371.118,156.099C370.749,155.277 369.956,154.767 369.162,154.682C368.368,154.597 367.575,154.937 366.838,156.411Z" style="fill:rgb(0,142,141);stroke:rgb(0,142,141);stroke-width:0.57px;"/>
            </g>
            <g transform="matrix(5.1873,0,0,5.1873,-1150.46,1575.54)">
                <path d="M369.162,159.047C368.623,160.011 368.453,161.768 367.631,163.299C367.461,163.583 367.291,163.838 367.121,164.121C367.348,164.518 367.461,165.057 367.433,165.765C368.765,163.583 370.097,161.428 370.778,159.756C371.033,159.104 371.203,158.537 371.288,158.055C370.324,157.999 369.616,158.254 369.162,159.047Z" style="fill:rgb(0,142,141);stroke:rgb(0,142,141);stroke-width:0.57px;"/>
            </g>
            <g transform="matrix(5.1873,0,0,5.1873,-1150.46,1575.54)">
                <path d="M423.586,239.917L450.23,85.15" style="fill:none;stroke:rgb(51,44,43);stroke-width:4.25px;"/>
            </g>
            <g transform="matrix(5.1873,0,0,5.1873,-1150.46,1575.54)">
                <path d="M451.449,77.979C443.456,78.858 441.869,81.182 441.585,82.798C441.302,84.442 442.294,85.349 444.448,86.171C446.631,87.021 449.947,87.758 457.997,88.467C466.047,89.175 478.775,89.856 485.577,90.026C492.38,90.196 493.202,89.856 493.798,88.693C494.365,87.503 494.705,85.519 494.705,84.016C494.705,82.514 494.365,81.522 493.259,80.643C492.125,79.765 490.198,79.028 482.034,78.347C473.871,77.695 459.443,77.1 451.449,77.979Z" style="fill:rgb(0,142,141);stroke:rgb(0,142,141);stroke-width:0.57px;"/>
            </g>
            <g transform="matrix(5.1873,0,0,5.1873,-1150.46,1575.54)">
                <path d="M333.361,341.905L346.4,341.621C349.093,342.443 359.61,347.631 353.033,348.538C349.433,349.02 337.755,348.623 333.588,348.453L333.361,341.905Z" style="fill:rgb(51,44,43);stroke:rgb(51,44,43);stroke-width:0.22px;"/>
            </g>
        </g>
    </g>
</svg>
