<?xml version="1.0" encoding="UTF-8" standalone="no"?>
<!DOCTYPE svg PUBLIC "-//W3C//DTD SVG 1.1//EN" "http://www.w3.org/Graphics/SVG/1.1/DTD/svg11.dtd">
<svg width="100%" height="100%" viewBox="0 0 1357 1526" version="1.1" xmlns="http://www.w3.org/2000/svg" xmlns:xlink="http://www.w3.org/1999/xlink" xml:space="preserve" xmlns:serif="http://www.serif.com/" style="fill-rule:evenodd;clip-rule:evenodd;stroke-linejoin:round;stroke-miterlimit:1.41421;">
    <g transform="matrix(1,0,0,1,-256.021,-2151)">
        <path d="M256.021,3676.91C570.681,3676.91 885.34,3676.91 1200,3676.91C1236.78,3639.35 1275.19,3599.17 1297.51,3550.76C1317.16,3508.15 1320.51,3458 1321.62,3411.76C1323.18,3347.7 1325.56,3282.31 1317.34,3218.56C1310.68,3166.92 1298.76,3113.45 1302.29,3060.93C1306.97,2991.09 1349.62,2937.8 1386.07,2881.18C1407.03,2848.62 1422.45,2813.49 1438.42,2778.27C1451.15,2750.18 1462.63,2725.6 1472.9,2697.29C1486.25,2660.52 1496.95,2622 1496.8,2582.57C1496.56,2517.21 1471.62,2453.47 1476.44,2387.83C1478.77,2356.14 1489.97,2327.2 1504.54,2299.27C1532.87,2244.94 1572.64,2197.2 1612.38,2151C1160.26,2151 708.142,2151 256.021,2151C256.021,2659.64 256.021,3168.27 256.021,3676.91" style="fill:rgb(83,214,211);"/>
    </g>
</svg>
